<?xml version="1.0" encoding="UTF-8" standalone="no"?>
<svg
   xmlns:dc="http://purl.org/dc/elements/1.1/"
   xmlns:cc="http://creativecommons.org/ns#"
   xmlns:rdf="http://www.w3.org/1999/02/22-rdf-syntax-ns#"
   xmlns:svg="http://www.w3.org/2000/svg"
   xmlns="http://www.w3.org/2000/svg"
   xmlns:sodipodi="http://sodipodi.sourceforge.net/DTD/sodipodi-0.dtd"
   xmlns:inkscape="http://www.inkscape.org/namespaces/inkscape"
   sodipodi:docname="logo.svg"
   inkscape:version="1.0 (4035a4fb49, 2020-05-01)"
   id="svg8"
   version="1.1"
   viewBox="0 0 32 32"
   height="32mm"
   width="32mm">
  <defs
     id="defs2" />
  <sodipodi:namedview
     inkscape:window-maximized="1"
     inkscape:window-y="-8"
     inkscape:window-x="-8"
     inkscape:window-height="1017"
     inkscape:window-width="1920"
     showgrid="false"
     inkscape:document-rotation="0"
     inkscape:current-layer="layer1"
     inkscape:document-units="mm"
     inkscape:cy="33.000924"
     inkscape:cx="-143.79095"
     inkscape:zoom="1.3629885"
     inkscape:pageshadow="2"
     inkscape:pageopacity="0.0"
     borderopacity="1.0"
     bordercolor="#666666"
     pagecolor="#ffffff"
     id="base" />
  <metadata
     id="metadata5">
    <rdf:RDF>
      <cc:Work
         rdf:about="">
        <dc:format>image/svg+xml</dc:format>
        <dc:type
           rdf:resource="http://purl.org/dc/dcmitype/StillImage" />
        <dc:title></dc:title>
      </cc:Work>
    </rdf:RDF>
  </metadata>
  <g
     id="layer1"
     inkscape:groupmode="layer"
     inkscape:label="Layer 1">
    <path
       sodipodi:nodetypes="csc"
       id="path865"
       d="M 9.2273504e-5,0.13162437 C 12.914478,0.14071849 20.812371,2.2051829 25.515038,7.0379022 30.419522,12.07802 31.848648,20.129092 31.868375,31.999782"
       style="fill:none;stroke:#000000;stroke-width:0.263248px;stroke-linecap:butt;stroke-linejoin:miter;stroke-opacity:1" />
    <path
       sodipodi:nodetypes="ccccccccccc"
       style="fill:#000000;stroke-width:0.264583"
       d="m 12.1325,17.251467 -0.640291,2.116667 H 9.486667 l 1.632479,1.166812 -0.619125,2.008188 1.632479,-1.240896 1.635125,1.240896 -0.62177,-2.008188 1.632479,-1.166812 h -2.005542 z"
       id="path4-7" />
    <path
       style="fill:none;stroke:#000000;stroke-width:0.263248px;stroke-linecap:butt;stroke-linejoin:miter;stroke-opacity:1"
       d="m -7.9999077,8.1316244 c 12.9143864,0.00909 20.8122787,2.0735586 25.5149457,6.9062786 4.904485,5.040118 6.33361,13.09119 6.353337,24.961879"
       id="path865-6"
       sodipodi:nodetypes="csc" />
    <path
       style="fill:none;stroke:#000000;stroke-width:0.263248px;stroke-linecap:butt;stroke-linejoin:miter;stroke-opacity:1"
       d="m -15.999908,16.131624 c 12.914387,0.0091 20.812279,2.073558 25.514948,6.906276 4.904484,5.040114 6.333611,13.091185 6.353336,24.961867"
       id="path865-0"
       sodipodi:nodetypes="csc" />
    <path
       id="path4-7-2"
       d="m 11.55014,5.1189667 -0.640291,2.116667 H 8.9043067 L 10.536786,8.4024459 9.917661,10.410634 11.55014,9.1697378 13.185265,10.410634 12.563495,8.4024459 14.195974,7.2356337 h -2.005542 z"
       style="fill:#000000;stroke-width:0.264583"
       sodipodi:nodetypes="ccccccccccc" />
    <path
       id="path4-7-6"
       d="m 26.40032,20.163267 -0.640291,2.116667 h -2.005542 l 1.632479,1.166812 -0.619125,2.008188 1.632479,-1.240896 1.635125,1.240896 -0.62177,-2.008188 1.632479,-1.166812 h -2.005542 z"
       style="fill:#000000;stroke-width:0.264583"
       sodipodi:nodetypes="ccccccccccc" />
    <path
       sodipodi:nodetypes="ccccccccccc"
       style="fill:#000000;stroke-width:0.264583"
       d="m 22.22674,8.6131266 -0.640291,2.1166674 h -2.005542 l 1.632479,1.166812 -0.619125,2.008188 1.632479,-1.240896 1.635125,1.240896 -0.62177,-2.008188 1.632479,-1.166812 h -2.005542 z"
       id="path4-7-4-5" />
  </g>
</svg>
